<svg xmlns="http://www.w3.org/2000/svg" version="1.1" xmlns:xlink="http://www.w3.org/1999/xlink" xmlns:svgjs="http://svgjs.com/svgjs" width="80.000000pt" height="80.000000pt"><svg version="1.0" xmlns="http://www.w3.org/2000/svg" width="80.000000pt" height="80.000000pt" viewBox="0 0 80.000000 80.000000" preserveAspectRatio="xMidYMid meet">
<metadata>
Created by potrace 1.14, written by Peter Selinger 2001-2017
</metadata>
<g transform="translate(0.000000,80.000000) scale(0.100000,-0.100000)" fill="#000000" stroke="none" data-darkreader-inline-fill="" data-darkreader-inline-stroke="" style="--darkreader-inline-fill:#000000; --darkreader-inline-stroke:none;">
<path d="M298 588 l-95 -163 98 -3 c55 -1 143 -1 198 0 l98 3 -94 160 c-51 88
-97 161 -101 163 -5 1 -51 -71 -104 -160z"></path>
<path d="M98 248 l-96 -163 199 -3 c109 -1 288 -1 398 0 l199 3 -96 163 c-53
89 -99 162 -102 162 -3 0 -48 -72 -100 -160 -52 -88 -97 -160 -100 -160 -3 0
-48 72 -100 160 -52 88 -97 160 -100 160 -3 0 -49 -73 -102 -162z"></path>
</g>
</svg><style>@media (prefers-color-scheme: light) { :root { filter: none; } }
</style></svg>